<?xml version="1.0" standalone="no"?>
<!DOCTYPE svg PUBLIC "-//W3C//DTD SVG 20010904//EN"
 "http://www.w3.org/TR/2001/REC-SVG-20010904/DTD/svg10.dtd">
<svg version="1.0" xmlns="http://www.w3.org/2000/svg"
 width="500.000000pt" height="500.000000pt" viewBox="0 0 500.000000 500.000000"
 preserveAspectRatio="xMidYMid meet">

<g transform="translate(0.000000,500.000000) scale(0.100000,-0.100000)"
fill="#000000" stroke="none">
<path d="M2270 4905 c-443 -44 -868 -209 -1230 -478 -121 -90 -374 -343 -466
-467 -326 -437 -487 -922 -487 -1465 0 -397 74 -707 253 -1070 130 -263 267
-452 472 -651 465 -450 1042 -685 1683 -686 319 0 585 48 874 159 304 116 569
286 811 520 211 203 348 391 480 658 179 363 252 672 253 1070 1 541 -161
1029 -487 1465 -92 124 -345 377 -466 467 -367 272 -784 433 -1240 478 -171
17 -280 17 -450 0z m610 -189 c464 -80 879 -295 1210 -626 368 -368 599 -858
649 -1374 76 -782 -269 -1557 -901 -2024 -588 -435 -1347 -556 -2045 -327
-327 108 -627 292 -876 538 -187 185 -312 358 -432 602 -580 1169 -46 2577
1167 3079 180 74 419 134 632 156 146 16 435 4 596 -24z"/>
<path d="M2155 3544 c-299 -56 -485 -202 -485 -381 0 -97 56 -157 145 -157 74
0 135 38 169 106 35 70 34 84 -4 57 -25 -19 -33 -21 -55 -11 -49 23 -53 96 -7
164 76 115 353 181 551 132 183 -46 283 -150 284 -294 1 -101 -44 -169 -142
-219 -34 -18 -162 -60 -223 -75 l-28 -6 0 228 c0 168 4 241 14 275 8 26 12 47
9 47 -3 0 -22 -13 -42 -29 -46 -36 -101 -64 -172 -86 l-56 -18 23 -22 c33 -33
42 -81 50 -260 l7 -160 -64 -19 c-161 -48 -219 -93 -219 -172 0 -35 6 -51 26
-71 23 -23 31 -25 84 -21 65 5 103 25 76 40 -10 5 -16 23 -16 42 0 26 8 41 35
65 65 57 65 56 65 -183 0 -134 -4 -217 -10 -221 -6 -3 -39 5 -73 19 -71 28
-214 56 -288 56 l-49 0 0 103 c1 191 34 317 97 367 14 11 23 24 19 28 -4 4
-78 7 -164 6 -127 -1 -173 -5 -237 -23 -167 -44 -308 -139 -355 -238 -42 -88
-27 -206 32 -248 105 -73 253 -3 283 135 l7 34 -32 -27 c-38 -32 -53 -34 -80
-7 -25 25 -26 79 -4 126 49 103 244 200 385 192 l52 -3 -35 -45 c-39 -52 -126
-108 -181 -117 l-37 -6 24 -22 c30 -28 42 -73 51 -187 l7 -86 -59 -17 c-124
-36 -211 -100 -228 -168 -25 -97 57 -178 217 -214 l71 -16 -6 -131 c-4 -72
-13 -153 -21 -180 -40 -126 -124 -196 -238 -196 -37 0 -37 1 -36 37 1 27 -5
41 -21 55 -32 25 -57 23 -88 -8 -49 -49 -9 -123 79 -144 66 -16 129 -7 261 38
89 30 107 40 107 57 1 49 41 65 76 30 14 -14 36 -25 52 -25 15 0 42 -4 59 -9
27 -8 35 -6 42 7 7 12 1 26 -24 54 -48 53 -66 121 -72 279 l-6 135 69 13 c37
7 89 20 114 30 25 10 81 28 125 41 44 12 88 25 98 27 16 5 17 -10 17 -209 0
-245 -10 -299 -61 -342 l-31 -26 180 0 180 0 -33 33 c-47 47 -55 101 -55 367
0 249 -3 238 57 221 28 -8 33 -7 39 11 4 14 -2 28 -19 46 -62 67 -77 144 -76
386 0 217 7 246 62 259 20 5 43 7 50 4 8 -3 26 -40 42 -84 53 -149 151 -326
256 -460 l49 -63 -20 -37 c-32 -60 -23 -112 27 -160 31 -29 139 -83 166 -83
26 0 21 -29 -20 -111 -66 -133 -170 -214 -288 -226 l-53 -6 5 40 c6 48 -14 73
-58 73 -57 0 -89 -73 -58 -132 29 -55 159 -54 328 3 92 31 104 37 116 66 18
44 53 53 80 21 26 -31 106 -46 125 -23 9 11 6 21 -12 45 -19 27 -23 44 -22
103 1 121 2 123 87 130 134 12 270 69 303 128 7 13 13 41 14 61 1 94 -150 115
-238 33 -33 -30 -34 -34 -16 -35 50 0 58 -56 12 -78 -32 -15 -97 -7 -105 13
-4 11 22 122 54 229 5 17 12 18 69 13 103 -10 246 -81 297 -149 31 -41 107
-312 107 -381 0 -34 -6 -53 -20 -67 l-20 -20 161 0 161 0 -32 27 c-18 15 -41
46 -51 70 -19 45 -325 1120 -331 1163 -3 23 0 25 39 23 60 -2 115 -41 143
-100 27 -55 39 -39 22 31 -6 22 -14 73 -17 111 l-7 70 -338 0 -338 0 -7 -70
c-3 -38 -11 -91 -17 -118 -15 -71 -5 -78 27 -19 34 62 75 91 144 99 l51 6 -6
-34 c-4 -19 -40 -157 -80 -308 -41 -151 -74 -275 -74 -276 0 -1 -28 -8 -62
-15 -35 -6 -77 -18 -95 -25 l-32 -14 -35 57 c-79 132 -146 290 -190 451 l-24
90 72 34 c86 41 137 84 174 146 24 41 27 56 27 136 0 75 -4 98 -25 140 -51
104 -156 175 -323 216 -112 28 -350 35 -462 13z m1345 -989 c44 -159 83 -296
86 -304 3 -9 -1 -11 -13 -6 -79 34 -152 55 -218 64 -43 6 -80 13 -82 15 -2 2
26 113 62 247 78 289 76 281 80 277 2 -2 40 -133 85 -293z m-1543 -276 c61
-19 136 -67 157 -101 9 -15 5 -24 -22 -50 l-32 -33 0 28 c0 61 -69 107 -137
91 -45 -11 -141 -62 -152 -81 -8 -13 -10 8 -11 81 l0 98 67 -7 c37 -4 96 -16
130 -26z m-367 -134 c0 -140 -4 -146 -61 -98 -69 58 -72 130 -8 188 65 58 69
53 69 -90z m1514 69 c-17 -66 -32 -109 -38 -107 -17 6 -67 74 -61 83 8 13 75
49 93 50 8 0 10 -8 6 -26z m-1301 -206 c-2 -5 -13 -8 -24 -8 -15 0 -19 7 -19
36 l0 35 24 -28 c13 -15 22 -31 19 -35z m1237 -16 c0 -17 -35 6 -57 38 -15 21
-15 21 21 -2 20 -12 36 -29 36 -36z"/>
</g>
</svg>
